<svg width="24px" height="24px" viewBox="0 0 24 24" fill="none" xmlns="http://www.w3.org/2000/svg">
<path d="M6 14.4623H16.1909C17.6066 14.4623 18.472 12.7739 17.7261 11.4671L17.2365 10.6092C16.7547 9.76504 16.7547 8.69728 17.2365 7.85309L17.7261 6.99524C18.472 5.68842 17.6066 4 16.1909 4L6 4L6 14.4623Z" fill="#363853" fill-opacity="0.15"/>
<path d="M6 14.4623H16.1909C17.6066 14.4623 18.472 12.7739 17.7261 11.4671L17.2365 10.6092C16.7547 9.76504 16.7547 8.69728 17.2365 7.85309L17.7261 6.99524C18.472 5.68842 17.6066 4 16.1909 4L6 4L6 14.4623ZM6 14.4623L6 20" stroke="#363853" stroke-width="1.5" stroke-linecap="round" stroke-linejoin="round"/>
</svg>
