<?xml version="1.0" ?><svg width="24px" height="24px" viewBox="0 0 24 24" style="enable-background:new 0 0 24 24;" version="1.1" xml:space="preserve" xmlns="http://www.w3.org/2000/svg" xmlns:xlink="http://www.w3.org/1999/xlink"><style type="text/css">
	.st0{display:none;}
	.st1{display:inline;}
	.st2{opacity:0.2;fill:none;stroke:#000000;stroke-width:5.000000e-02;stroke-miterlimit:10;}
</style><g class="st0" id="grid_system"/><g id="_icons"><path d="M17.7,4.7c-1.4-0.7-3-0.7-4.4,0c-0.8,0.4-1.8,0.4-2.6,0l-0.4-0.2C9.3,4,8.1,3.9,6.9,4.1L6.2,4.3C5,4.6,4.2,5.6,4,6.9   C4,6.9,4,7,4,7v0.2v6.4V19c0,0.6,0.4,1,1,1s1-0.4,1-1v-4.6L7.4,14c0.7-0.2,1.4-0.1,2,0.2l0.5,0.2c0.7,0.3,1.4,0.5,2.2,0.5   c0.8,0,1.5-0.2,2.3-0.5c0.8-0.4,1.8-0.4,2.6,0h0c0.7,0.3,1.5,0.3,2.1-0.1c0.7-0.4,1.1-1.1,1.1-1.9v-4C20,6.9,19.1,5.5,17.7,4.7z    M18,12.5c0,0.1-0.1,0.1-0.1,0.2c-0.1,0-0.1,0-0.2,0c-1.4-0.7-3-0.7-4.4,0c-0.8,0.4-1.8,0.4-2.6,0l-0.5-0.2   c-0.7-0.3-1.4-0.5-2.2-0.5c-0.4,0-0.8,0-1.2,0.1L6,12.3V7.2c0-0.4,0.3-0.8,0.7-0.9l0.7-0.2c0.7-0.2,1.4-0.1,2,0.2l0.4,0.2   c1.4,0.7,3,0.7,4.4,0c0.8-0.4,1.8-0.4,2.6,0c0.8,0.4,1.2,1.2,1.2,2V12.5z"/></g></svg>